<?xml version="1.0" encoding="UTF-8"?>
<svg enable-background="new 0 0 151.7 36.5" version="1.1" viewBox="0 0 151.7 36.5" xml:space="preserve" xmlns="http://www.w3.org/2000/svg">
<g transform="translate(-.11 -.45)">
	<g transform="translate(.11 .45)">
		<path class="st0" style="fill:#e63b4f;" d="m128.5 1.5c-9.3 0-16.9 7.5-16.9 16.8 0.1 9.3 7.7 16.8 17.1 16.7 9.2-0.1 16.6-7.5 16.7-16.7 0-9.3-7.6-16.8-16.9-16.8zm0 30c-7.3-0.1-13.2-6-13.1-13.3s6.1-13.2 13.4-13.2c7.2 0.1 13.1 6 13.1 13.2-0.1 7.4-6 13.3-13.4 13.3z"/>
		<path class="st0" style="fill:#e63b4f;" d="m61.3 14.1v-3h-10.1v15h10.1v-3h-6.4v-3h5v-3h-5v-3h6.4z"/>
		<path class="st0" style="fill:#e63b4f;" d="M72.4,10.4v15h9.4v-3.1H76V10.4H72.4z"/>
		<path class="st0" style="fill:#e63b4f;" d="M92.6,11.1v15h9.4V23h-5.7V11.1H92.6z"/>
		<path class="st0" style="fill:#e63b4f;" d="m18.4 25c0.6 0.6 1.3 1 2.1 1.3 0.9 0.3 1.8 0.5 2.7 0.5s1.8-0.1 2.7-0.5c0.8-0.3 1.5-0.7 2.1-1.3s1-1.2 1.3-2 0.5-1.6 0.4-2.5v-8.8h-3.7v8.8c0 0.4-0.1 0.9-0.2 1.3-0.1 0.3-0.3 0.7-0.6 0.9-0.2 0.3-0.5 0.5-0.9 0.6-0.8 0.3-1.6 0.3-2.4 0-0.3-0.1-0.6-0.3-0.9-0.6l-0.6-0.9c-0.1-0.4-0.2-0.9-0.2-1.3v-8.8h-3.7v8.8c0 0.8 0.1 1.7 0.4 2.5 0.5 0.8 0.9 1.5 1.5 2"/>
		<path class="st0" style="fill:#e63b4f;" d="m23.1 1.5c-9.3 0-16.8 7.5-16.9 16.7 0.1 9.4 7.8 16.9 17.1 16.8 9.2-0.1 16.6-7.5 16.7-16.7 0-9.3-7.6-16.8-16.9-16.8zm0 30c-7.3-0.1-13.2-6-13.1-13.3 0.1-7.4 6.1-13.2 13.4-13.2 7.2 0.1 13.1 6 13.1 13.2-0.1 7.4-6 13.3-13.4 13.3z"/>
	</g>
</g>
</svg>

